<?xml version="1.0" standalone="no"?>
<!DOCTYPE svg PUBLIC "-//W3C//DTD SVG 20010904//EN"
 "http://www.w3.org/TR/2001/REC-SVG-20010904/DTD/svg10.dtd">
<svg version="1.0" xmlns="http://www.w3.org/2000/svg"
 width="700.000000pt" height="700.000000pt" viewBox="0 0 700.000000 700.000000"
 preserveAspectRatio="xMidYMid meet">
<metadata>
Created by potrace 1.11, written by Peter Selinger 2001-2013
</metadata>
<g transform="translate(0.000000,700.000000) scale(0.100000,-0.100000)"
fill="#000000" stroke="none">
<path d="M2909 6966 c-63 -47 -170 -125 -369 -269 -243 -176 -1461 -1062
-1604 -1167 -33 -25 -249 -182 -478 -348 -230 -167 -420 -307 -422 -310 -2 -4
148 -7 335 -7 l339 0 26 -27 c15 -15 28 -37 30 -50 1 -13 3 -859 3 -1880 l1
-1858 1470 0 1470 0 -34 68 c-38 75 -75 169 -101 253 l-18 57 -61 7 c-34 4
-79 8 -101 10 -203 13 -258 30 -272 83 -8 34 -8 577 1 624 7 41 38 66 88 72
83 11 129 16 203 21 141 9 143 10 156 58 19 72 79 219 121 296 44 82 43 88
-10 147 -15 16 -47 54 -72 84 -25 30 -53 64 -64 75 -35 38 -56 80 -56 114 0
31 20 54 222 257 231 234 251 248 308 226 14 -6 85 -60 158 -121 73 -61 135
-111 139 -111 3 0 56 24 117 54 61 30 155 69 209 86 69 23 97 37 98 49 1 20 6
73 13 131 3 25 8 81 12 125 7 93 25 138 60 154 15 6 83 11 169 11 l145 0 1 28
c0 15 1 218 1 452 0 465 1 470 58 494 21 9 120 12 355 11 179 0 325 1 325 2 0
4 -191 145 -382 283 -95 69 -178 129 -185 135 -7 5 -61 45 -120 88 -59 43
-166 121 -238 173 -71 52 -191 138 -265 192 -74 53 -142 102 -150 109 -19 15
-277 203 -307 223 -23 16 -247 179 -398 290 -49 37 -189 138 -310 226 -121 88
-294 214 -385 280 -91 66 -170 123 -176 127 -6 4 -31 -8 -55 -27z"/>
<path d="M4933 6362 c-18 -2 -33 -6 -34 -10 -4 -31 -3 -516 2 -523 3 -5 95
-74 205 -153 109 -80 204 -148 209 -153 19 -16 59 -43 65 -43 7 0 6 867 -1
875 -7 6 -389 12 -446 7z"/>
<path d="M4959 3686 c-2 -5 -9 -76 -25 -261 -3 -38 -13 -86 -22 -105 -18 -37
-22 -39 -177 -85 -125 -37 -182 -62 -312 -137 -117 -69 -126 -67 -254 38 -57
47 -121 99 -141 115 l-36 29 -136 -135 c-75 -75 -136 -138 -136 -141 0 -2 9
-14 19 -26 11 -13 47 -57 81 -98 34 -41 72 -87 85 -101 53 -61 58 -106 19
-165 -64 -93 -144 -279 -183 -421 -11 -40 -22 -77 -26 -83 -15 -24 -69 -38
-195 -50 -74 -7 -146 -14 -160 -15 -14 -2 -31 -3 -37 -4 -10 -1 -13 -47 -13
-195 l0 -194 28 -6 c15 -3 59 -8 97 -11 281 -23 277 -21 311 -155 25 -104 80
-237 144 -352 33 -59 60 -116 60 -128 0 -32 -14 -54 -114 -175 -50 -60 -97
-118 -105 -128 -12 -15 0 -31 120 -152 74 -74 137 -135 140 -135 6 0 191 148
199 160 16 22 97 70 119 70 15 0 58 -18 96 -41 128 -75 353 -169 404 -169 8 0
34 -9 57 -21 51 -24 61 -48 69 -166 3 -46 8 -93 11 -105 2 -13 4 -41 5 -63 2
-80 -12 -75 205 -75 148 0 194 3 195 13 1 6 3 21 4 32 5 39 15 141 21 215 10
127 25 144 146 175 105 27 259 92 357 150 51 30 103 55 115 55 34 0 69 -23
195 -129 66 -56 123 -101 127 -101 8 0 274 265 274 273 0 3 -6 12 -13 19 -55
57 -208 254 -213 273 -9 35 0 64 44 136 39 65 53 93 92 184 25 56 80 230 80
251 0 22 48 63 83 69 17 3 55 7 82 9 28 3 84 8 125 12 41 4 85 7 98 8 18 0 22
6 23 31 3 143 2 356 -2 359 -7 7 -56 14 -144 21 -44 3 -89 8 -100 10 -11 2
-40 4 -63 4 -36 1 -50 7 -78 35 -19 19 -34 43 -34 55 0 63 -109 330 -181 443
-38 58 -43 96 -19 134 10 16 63 83 118 149 l100 120 -121 125 c-67 69 -129
131 -138 137 -14 10 -39 -7 -155 -103 -160 -132 -171 -136 -263 -80 -129 78
-265 134 -433 181 -38 10 -63 24 -73 39 -20 30 -25 61 -41 241 -4 44 -8 89
-10 100 -1 11 -3 25 -3 32 -1 8 -55 11 -196 11 -107 0 -195 -1 -196 -2z m376
-651 c329 -54 615 -232 808 -503 78 -110 175 -333 192 -446 3 -17 9 -55 14
-85 13 -81 5 -295 -14 -391 -60 -302 -242 -579 -498 -758 -69 -48 -241 -134
-302 -152 -177 -50 -211 -55 -380 -55 -146 0 -196 6 -307 35 -377 99 -682 376
-824 747 -89 235 -94 544 -13 794 59 181 168 353 310 489 76 74 89 84 178 142
154 101 333 167 500 185 31 3 58 7 60 9 6 5 232 -4 276 -11z"/>
<path d="M5070 2849 c-158 -14 -311 -63 -444 -145 -189 -115 -340 -298 -416
-504 -46 -126 -63 -222 -63 -360 1 -329 146 -614 415 -813 79 -58 231 -137
264 -137 11 0 24 -4 29 -9 39 -34 291 -57 441 -38 193 23 420 136 564 279 250
248 349 574 284 931 -21 119 -109 304 -195 412 -54 68 -186 195 -212 204 -7 2
-25 14 -42 26 -58 43 -225 116 -300 131 -11 2 -31 6 -45 9 -83 17 -185 22
-280 14z m648 -634 c27 -32 29 -84 3 -116 -20 -25 -229 -233 -385 -383 -49
-47 -133 -129 -187 -181 -91 -88 -100 -95 -138 -95 -46 0 -37 -7 -292 246
-100 98 -150 155 -154 175 -9 40 14 81 57 102 33 16 40 16 70 3 18 -8 98 -78
177 -156 l144 -141 141 139 c254 252 437 427 454 434 31 14 86 0 110 -27z"/>
</g>
</svg>
