<?xml version="1.0"?>
<svg xmlns="http://www.w3.org/2000/svg" height="512px" viewBox="-1 0 433 433.491" width="512px" class=""><g><path d="m317.964844 256.746094c-34.566406 0-62.589844 28.023437-62.589844 62.589844 0 34.570312 28.023438 62.59375 62.589844 62.59375 34.570312 0 62.59375-28.023438 62.589844-62.59375-.039063-34.550782-28.035157-62.550782-62.589844-62.589844zm34.5 47.757812-39.179688 38.253906c-2.332031 2.273438-6.050781 2.273438-8.382812 0l-21.75-21.234374c-1.550782-1.492188-2.179688-3.703126-1.652344-5.789063.527344-2.089844 2.132812-3.734375 4.207031-4.308594 2.074219-.578125 4.296875 0 5.828125 1.511719l17.558594 17.140625 34.992188-34.160156c1.527343-1.53125 3.757812-2.121094 5.839843-1.542969 2.085938.574219 3.699219 2.226562 4.222657 4.324219.527343 2.097656-.117188 4.3125-1.683594 5.804687zm0 0" data-original="#000000" class="active-path" data-old_color="#010101" fill="#FFFFFF"/><path d="m197.234375 342.925781c-3.078125-.296875-5.425781-2.882812-5.425781-5.972656v-35.230469c0-3.09375 2.347656-5.679687 5.425781-5.976562l21.851563-2.105469c2.449218-9.132813 6.148437-17.886719 10.988281-26.011719l-13.921875-16.8125c-1.976563-2.386718-1.8125-5.878906.375-8.070312l24.851562-24.847656c2.1875-2.191407 5.683594-2.355469 8.066406-.378907l16.78125 13.894531c8.125-4.859374 16.894532-8.546874 26.050782-10.960937l2.105468-21.847656c.296876-3.078125 2.882813-5.425781 5.972657-5.425781h16.871093v-54.996094c0-3.3125 2.6875-6 6-6h40.144532l-181.5625-132.183594-181.5625 132.183594h40.144531c3.3125 0 6 2.6875 6 6v230.226562h182.117187c-4.105468-7.371094-7.269531-15.222656-9.425781-23.382812zm0 0" data-original="#000000" class="active-path" data-old_color="#010101" fill="#FFFFFF"/><path d="m405.839844 300.472656c-2.320313-10.707031-6.609375-20.890625-12.65625-30.027344-1.46875-2.203124-1.320313-5.113281.371094-7.152343l13.210937-15.949219-16.859375-17.078125-15.902344 13.164063c-2.015625 1.667968-4.878906 1.839843-7.078125.421874-9.1875-6.015624-19.382812-10.316406-30.101562-12.699218-2.546875-.554688-4.449219-2.691406-4.699219-5.289063l-1.996094-20.683593h-24.332031l-1.992187 20.683593c-.25 2.597657-2.152344 4.734375-4.699219 5.289063-10.707031 2.316406-20.886719 6.609375-30.023438 12.652344-2.207031 1.472656-5.113281 1.320312-7.15625-.371094l-15.925781-13.1875-17.121094 17.125 13.183594 15.925781c1.671875 2.015625 1.839844 4.878906.421875 7.078125-6.015625 9.183594-10.316406 19.382812-12.699219 30.101562-.550781 2.550782-2.691406 4.453126-5.289062 4.703126l-20.683594 1.992187v24.332031l20.683594 1.992188c2.597656.25 4.734375 2.148437 5.289062 4.699218 2.316406 10.707032 6.609375 20.890626 12.652344 30.023438 1.46875 2.207031 1.320312 5.113281-.371094 7.15625l-2.355468 2.84375-.007813.007812-10.824219 13.078126 17.121094 17.121093 15.925781-13.1875c2.015625-1.667969 4.882813-1.839843 7.082031-.417969 9.1875 6.011719 19.382813 10.316407 30.101563 12.699219 2.550781.554688 4.449219 2.691407 4.699219 5.289063l1.992187 20.683594h24.328125l1.992188-20.683594c.25-2.597656 2.152344-4.734375 4.699218-5.289063 10.707032-2.316406 20.886719-6.609375 30.023438-12.652343 2.207031-1.472657 5.113281-1.320313 7.15625.371093l15.921875 13.1875 17.125-17.125-13.183594-15.925781c-1.671875-2.015625-1.839843-4.878906-.421875-7.078125 6.011719-9.1875 10.316406-19.382813 12.699219-30.101563.550781-2.546874 2.6875-4.445312 5.28125-4.699218l20.375-1.988282v-24.335937l-20.667969-1.992187c-2.601562-.25-4.738281-2.152344-5.289062-4.707032zm-87.875 93.457032c-41.195313 0-74.589844-33.394532-74.589844-74.59375 0-41.195313 33.394531-74.589844 74.589844-74.589844 41.195312 0 74.589844 33.394531 74.589844 74.589844-.042969 41.175781-33.414063 74.546874-74.589844 74.59375zm0 0" data-original="#000000" class="active-path" data-old_color="#010101" fill="#FFFFFF"/><path d="m332.203125 94.648438v-55.085938h-30.222656v33.082031zm0 0" data-original="#000000" class="active-path" data-old_color="#010101" fill="#FFFFFF"/></g> </svg>
